# xmcd
#
# Track frame offsets:
# 150
# 19570
# 39535
# 57232
# 83375
# 104050
# 123287
# 153660
# 172547
# 196975
# 221845
#
# Disc length: 3308 seconds
#
#
# Revision: 0
# Processed by: cddbd v1.5.2PL0 Copyright (c) Steve Scherf et al.
# Submitted via: Nero 7, 11, 10, 0 
#
DISCID=870cea0b
DTITLE=Ron Prince and Hard Time - Paroled
DYEAR=1998
DGENRE=Blues
TTITLE0=One Reason
TTITLE1=Ride The Devil
TTITLE2=Aching Heart
TTITLE3=Crazy
TTITLE4=It's My Own Fault Darlin'
TTITLE5=Sombody Lied
TTITLE6=Where Does A True Love Go
TTITLE7=Highway Blues
TTITLE8=Dedicated To The Blues
TTITLE9=Finally Found
TTITLE10=Thinking Of You
EXTD=
EXTT0=One Reason
EXTT1=Ride The Devil
EXTT2=Aching Heart
EXTT3=Crazy
EXTT4=It's My Own Fault Darlin'
EXTT5=Sombody Lied
EXTT6=Where Does A True Love Go
EXTT7=Highway Blues
EXTT8=Dedicated To The Blues
EXTT9=Finally Found
EXTT10=Thinking Of You
PLAYORDER=
